<svg viewBox="0 0 97 30" xmlns="http://www.w3.org/2000/svg">
	<g fill="#FFF" fill-rule="nonzero">
		<path
			d="m45.532 8.47-.666.835a1.148 1.148 0 0 1-1.602.188h-.02a8.072 8.072 0 0 0-5.153-1.941c-4.307 0-7.678 3.339-7.678 7.576a7.624 7.624 0 0 0 2.252 5.419 7.577 7.577 0 0 0 5.426 2.2c1.81 0 3.683-.71 5.202-1.88a1.15 1.15 0 0 1 1.54.147l.645.73a1.15 1.15 0 0 1-.083 1.608c-.021.02-.042.02-.042.041-2.08 1.691-4.786 2.735-7.428 2.735-6.305 0-11.195-4.78-11.195-10.979 0-6.136 4.952-10.854 11.299-10.854 2.651.016 5.222.92 7.303 2.568a1.117 1.117 0 0 1 .208 1.607h-.008zM61.846 23.33v-6.282h-9.697v7.806a1.146 1.146 0 0 1-1.144 1.148h-1.353a1.139 1.139 0 0 1-1.144-1.148V5.57A1.138 1.138 0 0 1 49.63 4.42h1.361a1.139 1.139 0 0 1 1.145 1.148v8.244h9.696V5.57a1.138 1.138 0 0 1 1.124-1.148h1.352a1.139 1.139 0 0 1 1.145 1.148v19.306a1.146 1.146 0 0 1-1.145 1.148c.034 0-2.463-.041-2.463-2.692zM69.378 23.33V5.57a1.146 1.146 0 0 1 1.145-1.148h1.352a1.139 1.139 0 0 1 1.145 1.148v19.285a1.146 1.146 0 0 1-1.145 1.148s-2.497-.02-2.497-2.671zM92.609 23.33V5.57a1.146 1.146 0 0 1 1.144-1.148h1.353a1.139 1.139 0 0 1 1.144 1.148v19.285a1.146 1.146 0 0 1-1.144 1.148c-.03 0-2.497-.02-2.497-2.671zM89.854 23.832s-.021 2.17-2.643 2.17h-9.135a1.139 1.139 0 0 1-1.144-1.148V5.57a1.146 1.146 0 0 1 1.144-1.148h1.353a1.139 1.139 0 0 1 1.144 1.148v17.136h8.178a1.1 1.1 0 0 1 1.103 1.127zM11.51 13.625a8.837 8.837 0 0 1-1.456.898 7.387 7.387 0 0 1 1.894.459h.02a.58.58 0 0 0 .021-.188 1.686 1.686 0 0 0-.374-1.273l-.021-.02c0 .062-.042.083-.083.124zM9.263 15.337c-.54.02-1.727.23-2.06 1.106a.88.88 0 0 0 .458 1.21s.999.543 2.393-.312c.43-.266.81-.605 1.124-1.002.182-.186.336-.397.457-.627a5.055 5.055 0 0 0-2.372-.375zM13.966 26.232c-.02 0-.02 0-.02-.02l.02.02zM12.988 18.28a2.567 2.567 0 0 0-.458-1.9c-.098.202-.21.397-.333.585a7.066 7.066 0 0 1-1.573 1.753l.02.021c.167-.02 1.291-.146 2.144.313.075-.25.138-.522.2-.772zM8.493 12.06c-1.04-.146-1.852.02-2.184.292-.333.271-.25.522-.25.522.25.647 2.6.271 3.308.104.43-.103.842-.265 1.228-.48a12.136 12.136 0 0 0-2.102-.438zM13.134 20.471a8.912 8.912 0 0 1-.625 1.065c.316.024.626.102.916.23a4.026 4.026 0 0 0-.291-1.295zM12.218 19.803c.02-.02.062-.083.104-.125a2.971 2.971 0 0 0-2.455.063.729.729 0 0 0-.396.772s.188.585 1 .501c0 0 .777-.063 1.747-1.21zM12.052 22.684s-.625.438-.417.793c.292.5.937.23.937.23.445-.177.768-.571.853-1.044-.02 0-.79-.355-1.373.02z"/>
		<path
			d="M15.152 26.524a11.744 11.744 0 0 1-1.228-.313l-.02-.02.02.02c-.395-.188-.416-.96-.291-1.44a4.5 4.5 0 0 1 .208-.564l-.02.042a2.167 2.167 0 0 1-1.832 1.065s-2.185.125-1.956-2.108c-.458.083-1.727.167-2.372-.96-.437-.752-.062-1.963.687-2.547-1.082.167-2.81.02-3.267-1.106a2.093 2.093 0 0 1-.146-1.232c.125-.71.666-1.482 1.748-2.066v-.02a5.394 5.394 0 0 1-1.165-.084 2.288 2.288 0 0 1-1.52-.898 1.718 1.718 0 0 1 .063-1.857c.687-.96 2.123-1.17 3.288-1.17a8.302 8.302 0 0 1 3.745.877c.22-.157.363-.4.396-.668 0-.48-.75-.647-.978-.688-1.478-.272-2.206-.585-2.622-.856C6.829 9.18 6.579 7.885 6.579 7.03c0-1.336.687-2.442 1.186-3.048C1.695 6.252-1.46 12.967.66 19.108c2.12 6.14 8.738 9.46 14.908 7.479a3.363 3.363 0 0 1-.416-.063z"/>
		<path
			d="M11.885 3.273c-.753.006-1.505.076-2.247.208.31.196.59.435.832.71.687.793.937 1.712.479 2.046l-.021.02.02-.02c-.62.432-1.204.914-1.747 1.44-.267.25-.486.547-.645.876-.187.355-.27.794.125 1.19.395.397 1.872.543 2.56.647.318.018.634.082.935.188.52.188.791.564.791.918a1.845 1.845 0 0 1-.25.856c-.148.21-.307.413-.478.605 0 0 .999.898.603 2.547.021.02.874.542.978 2.024.043.69-.064 1.38-.312 2.025.652.748.987 1.721.937 2.713.67.64 1.37 1.247 2.101 1.816.812.564 1.207.647 1.852.626.308-.026.614-.075.916-.146a11.982 11.982 0 0 0 3.794-13.28 11.926 11.926 0 0 0-11.223-8.01zM14.32 23.018a4.56 4.56 0 0 1-.396 1.002c.396-.647.833-.647.833-.647a1.811 1.811 0 0 0-.437-.355z"/>
	</g>
</svg>
