<svg id="Livello_1" data-name="Livello 1" xmlns="http://www.w3.org/2000/svg" viewBox="0 0 25.76 20"><defs><style>.cls-1{fill:#fff;}.cls-2{fill:#ababab;}.cls-3{fill:#707070;}.cls-4{fill:#d1d1d1;}</style></defs><title>ritagli_footer_1272</title><path id="_Tracciato_composto_" data-name=" Tracciato composto " class="cls-1" d="M4.69,19.93V18.61A.77.77,0,0,0,4,17.77H3.86a.82.82,0,0,0-.77.38.77.77,0,0,0-.7-.38.7.7,0,0,0-.62.32v-.26H1.35v2.11h.46V18.76a.49.49,0,0,1,.42-.56h.1a.46.46,0,0,1,.46.56v1.18h.46V18.76a.5.5,0,0,1,.43-.56h.08a.46.46,0,0,1,.46.56v1.18h.46Zm6.87-2.11h-.77v-.64h-.46v.64H9.9v.41h.43v1a.66.66,0,0,0,.77.77,1.08,1.08,0,0,0,.58-.16l-.13-.39a.85.85,0,0,1-.41.12.29.29,0,0,1-.31-.35v-.95h.77V17.8Zm3.92-.05a.62.62,0,0,0-.56.31v-.25h-.45v2.11h.46V18.75a.45.45,0,0,1,.35-.54h.1a.77.77,0,0,1,.28.05l.14-.43a1,1,0,0,0-.33-.05h0ZM9.55,18a1.58,1.58,0,0,0-.86-.22.77.77,0,0,0-.88.64v0a.68.68,0,0,0,.73.62h.22c.25,0,.37.1.37.22s-.17.25-.48.25a1.13,1.13,0,0,1-.71-.22l-.22.36a1.54,1.54,0,0,0,.91.28.77.77,0,0,0,1-.69.68.68,0,0,0-.73-.63H8.6c-.2,0-.36-.07-.36-.21s.15-.25.4-.25a1.36,1.36,0,0,1,.66.18Zm12.29-.22a.62.62,0,0,0-.56.31v-.25h-.45v2.11h.51V18.75a.45.45,0,0,1,.35-.54h.1a.77.77,0,0,1,.28.05l.14-.43a1,1,0,0,0-.33-.05h0ZM16,18.88A1.07,1.07,0,0,0,17,20h.1a1.11,1.11,0,0,0,.77-.25l-.22-.37a.93.93,0,0,1-.55.19.68.68,0,1,1,0-1.35.93.93,0,0,1,.55.19l.22-.37a1.11,1.11,0,0,0-.77-.25,1.07,1.07,0,0,0-1.13,1s0,.07,0,.1Zm4.31,0V17.82H19.8v.25a.77.77,0,0,0-.67-.31,1.11,1.11,0,0,0,0,2.22.77.77,0,0,0,.67-.31v.25h.46V18.87Zm-1.71,0a.64.64,0,1,1,.64.68.64.64,0,0,1-.64-.68s0,0,0,0ZM13,17.77A1.11,1.11,0,0,0,13,20a1.28,1.28,0,0,0,.87-.3l-.22-.34a1,1,0,0,1-.61.22.58.58,0,0,1-.63-.51h1.54v-.18a1,1,0,0,0-.92-1.1h0Zm0,.41a.52.52,0,0,1,.54.51H12.42a.55.55,0,0,1,.56-.51h0Zm11.53.7V17h-.46v1.11a.77.77,0,0,0-.67-.31,1.11,1.11,0,0,0,0,2.22.77.77,0,0,0,.67-.31v.25h.46Zm-1.71,0a.64.64,0,1,1,.64.68.64.64,0,0,1-.64-.68s0,0,0,0Zm-15.53,0V17.82H6.83v.25a.77.77,0,0,0-.67-.31,1.11,1.11,0,0,0,0,2.22.77.77,0,0,0,.67-.31v.25h.46V18.88Zm-1.71,0a.64.64,0,1,1,.64.68.64.64,0,0,1-.64-.68s0,0,0-.06Z"/><g id="_Gruppo_" data-name=" Gruppo "><rect class="cls-2" x="9.4" y="1.71" width="6.97" height="12.52"/><path id="_Tracciato_" data-name=" Tracciato " class="cls-3" d="M9.81,8A8,8,0,0,1,12.88,1.7a8,8,0,1,0,0,12.52A8,8,0,0,1,9.81,8Z"/><path class="cls-4" d="M25.76,8a8,8,0,0,1-12.88,6.26,8,8,0,0,0,0-12.52A8,8,0,0,1,25.76,8Z"/></g></svg>