<svg xmlns="http://www.w3.org/2000/svg" viewBox="0 0 437.3 512"><title>Risorsa 1</title><g id="Livello_2" data-name="Livello 2"><g id="Capa_1" data-name="Capa 1"><path d="M372.36,38.62C348.49,11.58,305.29,0,250,0H89.64A22.94,22.94,0,0,0,67,19.2L.17,439.39a13.7,13.7,0,0,0,13.6,15.78h99l24.86-156.48-.77,4.93a22.86,22.86,0,0,1,22.63-19.2h47c92.45,0,164.8-37.25,186-145,.64-3.2,1.63-9.34,1.63-9.34C400.14,90.21,394.09,63.17,372.36,38.62Z" fill="#b3b3b3"/><path d="M419.18,150.5c-23,106.08-96.29,162.2-212.64,162.2H164.36L132.87,512h68.42a20,20,0,0,0,19.84-16.83l.8-4.23L237.67,392l1-5.44a20,20,0,0,1,19.8-16.83H271c80.86,0,144.16-32.58,162.65-126.82C441.1,205.12,437.51,173.41,419.18,150.5Z" fill="#b3b3b3"/></g></g></svg>