<?xml version="1.0" encoding="UTF-8"?>
<svg width="45px" height="20px" viewBox="0 0 45 20" version="1.1" xmlns="http://www.w3.org/2000/svg" xmlns:xlink="http://www.w3.org/1999/xlink">
    <title>Visa Electron / Gray</title>
    <g id="Visa-Electron-/-Gray" stroke="none" stroke-width="1" fill="none" fill-rule="evenodd">
        <g id="Icon-/-Payment-/-Visa-Copy-3" transform="translate(0.000000, -0.000000)" fill="#B3B3B3" fill-rule="nonzero">
            <g id="Group">
                <path d="M17.0859375,0.257009346 L11.19375,14.2686916 L7.35,14.2686916 L4.45078125,3.0864486 C4.275,2.39719626 4.12265625,2.14485981 3.5859375,1.85514019 C2.71171875,1.38317757 1.26796875,0.939252336 0,0.663551402 L0.08671875,0.257009346 L6.27421875,0.257009346 C7.06171875,0.257009346 7.771875,0.780373832 7.95,1.68691589 L9.48046875,9.79439252 L13.265625,0.257009346 L17.0859375,0.257009346 Z M32.1445313,9.69392523 C32.1609375,5.9953271 27.0140625,5.79205607 27.0492188,4.14018692 C27.0609375,3.63785047 27.5414063,3.10280374 28.5914063,2.96728972 C29.1117188,2.89953271 30.5484375,2.84813084 32.1773438,3.59345794 L32.8148438,0.621495327 C31.940625,0.306074766 30.8132813,0 29.4140625,0 C25.81875,0 23.2898438,1.90420561 23.26875,4.63317757 C23.2453125,6.64953271 25.0734375,7.77570093 26.4515625,8.44626168 C27.8695313,9.13317757 28.3453125,9.57476636 28.3382813,10.1869159 C28.3289063,11.1261682 27.2085938,11.5420561 26.1609375,11.5584112 C24.3328125,11.5864486 23.2734375,11.0654206 22.4273438,10.6728972 L21.76875,13.7429907 C22.6171875,14.1308411 24.1875,14.4696262 25.8117188,14.4883178 C29.634375,14.4883178 32.1328125,12.6074766 32.1445313,9.69392523 M41.6367188,14.271028 L45,14.271028 L42.0632813,0.257009346 L38.9601563,0.257009346 C38.2617188,0.257009346 37.6734375,0.661214953 37.4132813,1.28504673 L31.9570313,14.2686916 L35.775,14.2686916 L36.534375,12.1752336 L41.1984375,12.1752336 L41.6367188,14.271028 Z M37.5796875,9.30607477 L39.4945312,4.04439252 L40.5960937,9.30607477 L37.5796875,9.30607477 Z M22.2796875,0.257009346 L19.2726562,14.2686916 L15.6375,14.2686916 L18.6445312,0.257009346 L22.2796875,0.257009346 Z" id="Shape"></path>
                <path d="M26.90625,18.1518692 L25.4273438,18.1518692 L25.4273438,19.5257009 L27.0820313,19.5257009 L27.0820313,19.9392523 L24.928125,19.9392523 L24.928125,16.1308411 L26.9976563,16.1308411 L26.9976563,16.5443925 L25.4273438,16.5443925 L25.4273438,17.7476636 L26.90625,17.7476636 L26.90625,18.1518692 L26.90625,18.1518692 Z M27.8460938,15.9252336 L28.3453125,15.9252336 L28.3453125,19.9369159 L27.8460938,19.9369159 L27.8460938,15.9252336 Z M29.6039063,18.661215 C29.615625,19.3341121 30.0398438,19.6098131 30.54375,19.6098131 C30.9,19.6098131 31.1226563,19.546729 31.303125,19.4696262 L31.3945313,19.8247664 C31.21875,19.9042056 30.9117188,20 30.4757813,20 C29.6320313,20 29.128125,19.4415888 29.128125,18.614486 C29.128125,17.7873832 29.615625,17.1448598 30.4148438,17.1448598 C31.3171875,17.1448598 31.5492188,17.9252336 31.5492188,18.4275701 C31.5492188,18.5280374 31.5445313,18.6028037 31.5328125,18.6588785 L29.6039063,18.6588785 L29.6039063,18.661215 Z M31.0664063,18.3037383 C31.0710938,17.9929907 30.9351563,17.5023364 30.375,17.5023364 C29.8640625,17.5023364 29.6484375,17.9602804 29.6085938,18.3037383 L31.0664063,18.3037383 Z M34.2609375,19.8411215 C34.1296875,19.9042056 33.8414062,20 33.4734375,20 C32.6460937,20 32.1070312,19.4415888 32.1070312,18.6051402 C32.1070312,17.7640187 32.6859375,17.1471963 33.58125,17.1471963 C33.8765625,17.1471963 34.1367187,17.2196262 34.2726562,17.2943925 L34.1601562,17.6728972 C34.040625,17.6098131 33.853125,17.5420561 33.58125,17.5420561 C32.9507812,17.5420561 32.6109375,18.0116822 32.6109375,18.5771028 C32.6109375,19.2102804 33.01875,19.6004673 33.5625,19.6004673 C33.8460937,19.6004673 34.0335937,19.5327103 34.1742187,19.4696262 L34.2609375,19.8411215 Z M35.6601563,16.546729 L35.6601563,17.203271 L36.375,17.203271 L36.375,17.5817757 L35.6601563,17.5817757 L35.6601563,19.0560748 C35.6601563,19.3948598 35.75625,19.5864486 36.0351563,19.5864486 C36.1710938,19.5864486 36.2507813,19.5747664 36.3234375,19.5514019 L36.346875,19.9299065 C36.2507813,19.9626168 36.0984375,19.9976636 35.9039063,19.9976636 C35.671875,19.9976636 35.484375,19.9182243 35.3648438,19.7897196 C35.2289063,19.6378505 35.1726563,19.3948598 35.1726563,19.0724299 L35.1726563,17.5794393 L34.7484375,17.5794393 L34.7484375,17.2009346 L35.1726563,17.2009346 L35.1726563,16.6915888 L35.6601563,16.546729 Z M37.0710938,18.0560748 C37.0710938,17.7336449 37.0640625,17.4579439 37.0476563,17.203271 L37.4835938,17.203271 L37.5070313,17.7453271 L37.5234375,17.7453271 C37.6476563,17.3785047 37.9546875,17.1471963 38.2875,17.1471963 C38.3390625,17.1471963 38.3789063,17.1518692 38.4234375,17.1588785 L38.4234375,17.6285047 C38.371875,17.6168224 38.3226563,17.6168224 38.2523438,17.6168224 C37.9007813,17.6168224 37.6523438,17.8761682 37.584375,18.25 C37.5726563,18.317757 37.5679688,18.4018692 37.5679688,18.4813084 L37.5679688,19.9392523 L37.0710938,19.9392523 L37.0710938,18.0560748 Z M41.49375,18.546729 C41.49375,19.5584112 40.7859375,20 40.1273437,20 C39.3914062,20 38.8125,19.4579439 38.8125,18.5934579 C38.8125,17.6845794 39.4195312,17.1471891 40.171875,17.1471891 C40.959375,17.1448598 41.49375,17.7172897 41.49375,18.546729 Z M39.3210938,18.5747664 C39.3210938,19.1728972 39.6609375,19.6261682 40.1484375,19.6261682 C40.6242188,19.6261682 40.9804688,19.1799065 40.9804688,18.5630841 C40.9804688,18.1004673 40.7484375,17.5163551 40.1578125,17.5163551 C39.5765625,17.5186916 39.3210938,18.0607477 39.3210938,18.5747664 Z M42.2578125,17.9415888 C42.2578125,17.6542056 42.2507812,17.4275701 42.234375,17.2009346 L42.6773437,17.2009346 L42.7054687,17.6542056 L42.7171875,17.6542056 C42.853125,17.3995327 43.171875,17.1448598 43.6242187,17.1448598 C44.0039062,17.1448598 44.5945312,17.3714953 44.5945312,18.3084112 L44.5945312,19.9369159 L44.0953125,19.9369159 L44.0953125,18.3598131 C44.0953125,17.9182243 43.93125,17.5514019 43.4601562,17.5514019 C43.1367187,17.5514019 42.88125,17.7827103 42.7921875,18.0607477 C42.76875,18.1238318 42.7570312,18.2079439 42.7570312,18.2920561 L42.7570312,19.9369159 L42.2578125,19.9369159 L42.2578125,17.9415888 L42.2578125,17.9415888 Z" id="Shape"></path>
            </g>
        </g>
    </g>
</svg>